<svg width="70" height="80" viewBox="0 0 70 80" fill="none" xmlns="http://www.w3.org/2000/svg">
<path d="M69.2583 19.4926C67.9589 18.7933 66.6919 18.0349 65.4088 17.3034C55.4358 11.5909 45.4575 5.88392 35.49 0.160751C35.111 -0.0597844 34.8457 -0.0490266 34.4613 0.16613C23.1348 6.66924 11.8029 13.1562 0.460206 19.6324C0.12994 19.8261 0 20.0305 0 20.4124C0.0108284 33.4455 0.0108284 46.484 0 59.5171C0 59.8721 0.10287 60.0711 0.422306 60.254C9.1608 65.2456 17.8939 70.2426 26.627 75.245C29.3828 76.8211 32.1278 78.4186 34.8728 80H35.1435C35.2842 79.8978 35.4196 79.7848 35.5712 79.6988C46.8273 73.2495 58.078 66.8055 69.3395 60.3723C69.8322 60.0926 70 59.786 70 59.2266C69.9838 46.3925 69.9783 33.5584 70 20.7243C70 20.0896 69.778 19.7723 69.2528 19.4926H69.2583ZM28.9713 63.1102C23.4705 59.942 17.9805 56.7631 12.4689 53.611C11.9383 53.3044 11.7434 52.9763 11.7434 52.3631C11.7596 44.5583 11.7434 36.7535 11.7325 28.9541C11.7325 28.712 11.7325 28.4646 11.7325 28.2118C12.0411 28.158 12.1819 28.3893 12.3606 28.5292C18.3595 33.2949 24.3368 38.0821 30.3682 42.8048C31.1586 43.4234 31.1099 44.171 31.202 44.9187C31.9004 50.3998 32.5609 55.8863 33.2269 61.3674C33.4055 62.8197 33.568 64.272 33.752 65.8642C32.1007 64.9121 30.536 64.0139 28.9713 63.1102ZM35.4629 35.6132C35.1651 35.7477 34.9161 35.8176 34.5858 35.667C27.5474 32.5042 20.5089 29.3521 13.4651 26.1947C13.3406 26.1409 13.2269 26.0764 12.9832 25.958C14.7916 24.9145 16.4916 23.9356 18.1971 22.962C23.6275 19.8476 29.0633 16.7386 34.4938 13.6188C34.8511 13.4144 35.1056 13.4036 35.4629 13.6134C42.4797 17.6476 49.5073 21.671 56.5241 25.6998C56.654 25.7752 56.8273 25.8074 56.876 26.028C54.0282 27.3028 51.1749 28.5829 48.3216 29.8577C44.0336 31.778 39.7455 33.6929 35.4629 35.6132ZM58.1754 52.5406C58.1754 53.0678 57.9859 53.3206 57.5528 53.568C50.6335 57.543 43.7195 61.5288 36.8056 65.5146C36.6378 65.6114 36.4862 65.762 36.2155 65.7566C36.3725 64.4334 36.5241 63.1156 36.6865 61.7978C37.0709 58.6672 37.4553 55.5421 37.8397 52.4115C38.1971 49.48 38.5598 46.5539 38.9118 43.6224C38.9388 43.4019 39.0417 43.2674 39.2095 43.1383C45.4737 38.1682 51.7325 33.1873 57.9968 28.2118C58.0401 28.1741 58.1105 28.1688 58.2187 28.1311C58.3433 28.9541 58.1754 29.7071 58.1754 30.4602C58.1754 37.8185 58.1592 45.1823 58.1754 52.5406Z" fill="#42B5C5"/>
</svg>
